Coordinates
version=1
nRows=32
nColumns=12
inDegrees=yes

Units are S.I. units (second, meters, Newtons, ...)
Angles are in degrees

endheader
time	SC_y	SC_z	SC_x	AC_y	AC_z	AC_x	GH_y	GH_z	GH_yy	EL_x	PS_y
       0.0              -37.58          31.83          27.78          57.92         -16.22         -5.622         -18.55         -13.41          68.42          117.1          27.16
   0.03467              -37.58          31.83          27.78          57.92         -16.21         -5.622         -18.53          -13.4          68.42          117.1          27.16
   0.06935              -37.58          31.82          27.77          57.92         -16.21         -5.622         -18.52         -13.38          68.42          117.1          27.17
     0.104              -37.57          31.82          27.77          57.92         -16.21         -5.622          -18.5         -13.37          68.41          117.1          27.17
    0.1387              -37.57          31.82          27.77          57.92          -16.2         -5.622         -18.49         -13.36          68.41          117.1          27.18
    0.1734              -37.57          31.82          27.76          57.93          -16.2         -5.622         -18.47         -13.34          68.41          117.1          27.18
     0.208              -37.57          31.81          27.76          57.93          -16.2         -5.622         -18.45         -13.32          68.41          117.1          27.19
    0.2427              -37.56          31.81          27.75          57.93         -16.19         -5.622         -18.44         -13.31           68.4          117.1          27.19
    0.2774              -37.56          31.81          27.75          57.93         -16.19         -5.622         -18.42         -13.29           68.4          117.1           27.2
    0.3121              -37.55           31.8          27.74          57.93         -16.19         -5.622         -18.39         -13.27           68.4          117.1           27.2
    0.3467              -37.55           31.8          27.73          57.94         -16.18         -5.622         -18.37         -13.24          68.39          117.0          27.21
    0.3814              -37.54           31.8          27.73          57.94         -16.18         -5.622         -18.34         -13.22          68.39          117.0          27.22
    0.4161              -37.54          31.79          27.72          57.94         -16.17         -5.622         -18.32         -13.19          68.39          117.0          27.22
    0.4507              -37.53          31.79          27.71          57.94         -16.16         -5.622         -18.29         -13.17          68.38          117.0          27.23
    0.4854              -37.53          31.78           27.7          57.95         -16.16         -5.622         -18.26         -13.14          68.38          117.0          27.24
    0.5201              -37.52          31.78           27.7          57.95         -16.15         -5.622         -18.22          -13.1          68.37          117.0          27.25
    0.5548              -37.51          31.77          27.69          57.95         -16.14         -5.622         -18.18         -13.07          68.37          117.0          27.26
    0.5894               -37.5          31.77          27.68          57.96         -16.14         -5.622         -18.14         -13.03          68.36          117.0          27.27
    0.6241               -37.5          31.76          27.66          57.96         -16.13         -5.622          -18.1         -12.99          68.35          117.0          27.28
    0.6588              -37.49          31.75          27.65          57.96         -16.12         -5.622         -18.05         -12.94          68.35          116.9           27.3
    0.6935              -37.47          31.74          27.64          57.97         -16.11         -5.622          -18.0         -12.89          68.34          116.9          27.31
    0.7281              -37.46          31.74          27.62          57.98         -16.09         -5.622         -17.94         -12.84          68.33          116.9          27.33
    0.7628              -37.45          31.73           27.6          57.98         -16.08         -5.622         -17.87         -12.78          68.32          116.9          27.35
    0.7975              -37.44          31.71          27.59          57.99         -16.07         -5.622          -17.8         -12.71          68.31          116.9          27.37
    0.8322              -37.42           31.7          27.56           58.0         -16.05         -5.622         -17.72         -12.63           68.3          116.8          27.39
    0.8668               -37.4          31.69          27.54           58.0         -16.03         -5.622         -17.63         -12.55          68.29          116.8          27.41
    0.9015              -37.38          31.67          27.51          58.01         -16.01         -5.622         -17.53         -12.46          68.27          116.8          27.44
    0.9362              -37.36          31.66          27.49          58.02         -15.99         -5.622         -17.41         -12.35          68.26          116.7          27.47
    0.9708              -37.34          31.64          27.45          58.03         -15.97         -5.622         -17.29         -12.23          68.24          116.7          27.51
     1.006              -37.31          31.61          27.41          58.05         -15.94         -5.622         -17.14          -12.1          68.22          116.7          27.55
      1.04              -37.28          31.59          27.37          58.06          -15.9         -5.621         -16.98         -11.94          68.19          116.6           27.6
     1.075              -37.24          31.56          27.32          58.08         -15.87         -5.621         -16.78         -11.76          68.16          116.6          27.65
